<?xml version="1.0" encoding="utf-8"?>
<svg viewBox="2.299 35.915 218.647 28.732" xmlns="http://www.w3.org/2000/svg">
  <g transform="matrix(1, 0, 0, 1, -16.664423, -33.903481)">
    <path d="M 35.799 77.692 L 35.799 79.632 C 35.799 80.332 35.712 80.955 35.539 81.502 C 35.372 82.049 35.142 82.529 34.849 82.942 C 34.556 83.362 34.216 83.722 33.829 84.022 C 33.449 84.315 33.049 84.559 32.629 84.752 C 32.216 84.945 31.796 85.082 31.369 85.162 C 30.942 85.249 30.542 85.292 30.169 85.292 L 36.529 90.792 L 31.819 90.792 L 25.469 85.292 L 23.279 85.292 L 23.279 82.252 L 30.169 82.252 C 30.549 82.219 30.896 82.139 31.209 82.012 C 31.529 81.879 31.802 81.705 32.029 81.492 C 32.262 81.272 32.442 81.005 32.569 80.692 C 32.696 80.385 32.759 80.032 32.759 79.632 L 32.759 77.712 C 32.759 77.539 32.736 77.409 32.689 77.322 C 32.649 77.229 32.596 77.162 32.529 77.122 C 32.462 77.082 32.392 77.055 32.319 77.042 C 32.239 77.035 32.169 77.032 32.109 77.032 L 22.059 77.032 L 22.059 90.792 L 19.009 90.792 L 19.009 75.522 C 19.009 75.309 19.049 75.109 19.129 74.922 C 19.202 74.735 19.309 74.572 19.449 74.432 C 19.582 74.292 19.746 74.182 19.939 74.102 C 20.126 74.029 20.326 73.992 20.539 73.992 L 32.109 73.992 C 32.789 73.992 33.362 74.112 33.829 74.352 C 34.302 74.599 34.686 74.909 34.979 75.282 C 35.272 75.655 35.482 76.055 35.609 76.482 C 35.736 76.915 35.799 77.319 35.799 77.692 ZM 52.011 82.322 C 52.011 82.742 51.938 83.195 51.791 83.682 C 51.638 84.169 51.398 84.622 51.071 85.042 C 50.738 85.462 50.301 85.812 49.761 86.092 C 49.228 86.372 48.578 86.512 47.811 86.512 L 42.321 86.512 L 42.321 83.622 L 47.811 83.622 C 48.225 83.622 48.545 83.495 48.771 83.242 C 48.998 82.989 49.111 82.672 49.111 82.292 C 49.111 81.899 48.985 81.589 48.731 81.362 C 48.478 81.135 48.171 81.022 47.811 81.022 L 42.321 81.022 C 41.908 81.022 41.588 81.149 41.361 81.402 C 41.135 81.655 41.021 81.969 41.021 82.342 L 41.021 86.592 C 41.021 86.999 41.148 87.315 41.401 87.542 C 41.655 87.769 41.968 87.882 42.341 87.882 L 47.811 87.882 L 47.811 90.792 L 42.321 90.792 C 41.895 90.792 41.438 90.719 40.951 90.572 C 40.465 90.419 40.011 90.179 39.591 89.852 C 39.178 89.519 38.828 89.085 38.541 88.552 C 38.261 88.012 38.121 87.359 38.121 86.592 L 38.121 82.322 C 38.121 81.895 38.195 81.439 38.341 80.952 C 38.495 80.465 38.738 80.012 39.071 79.592 C 39.398 79.179 39.831 78.829 40.371 78.542 C 40.905 78.262 41.555 78.122 42.321 78.122 L 47.811 78.122 C 48.238 78.122 48.695 78.195 49.181 78.342 C 49.668 78.495 50.121 78.739 50.541 79.072 C 50.955 79.399 51.305 79.832 51.591 80.372 C 51.871 80.905 52.011 81.555 52.011 82.322 ZM 67.031 82.322 L 67.031 86.592 C 67.031 87.019 66.958 87.475 66.811 87.962 C 66.658 88.449 66.414 88.902 66.081 89.322 C 65.754 89.742 65.321 90.092 64.781 90.372 C 64.248 90.652 63.598 90.792 62.831 90.792 L 57.341 90.792 C 56.914 90.792 56.458 90.719 55.971 90.572 C 55.484 90.419 55.031 90.179 54.611 89.852 C 54.191 89.519 53.841 89.085 53.561 88.552 C 53.281 88.012 53.141 87.359 53.141 86.592 C 53.141 86.172 53.214 85.715 53.361 85.222 C 53.514 84.735 53.754 84.282 54.081 83.862 C 54.414 83.442 54.851 83.092 55.391 82.812 C 55.924 82.532 56.574 82.392 57.341 82.392 L 62.831 82.392 L 62.831 85.292 L 57.341 85.292 C 56.928 85.292 56.608 85.419 56.381 85.672 C 56.154 85.932 56.041 86.249 56.041 86.622 C 56.041 87.022 56.171 87.332 56.431 87.552 C 56.691 87.772 57.001 87.882 57.361 87.882 L 62.831 87.882 C 63.244 87.882 63.564 87.759 63.791 87.512 C 64.018 87.259 64.131 86.945 64.131 86.572 L 64.131 82.322 C 64.131 81.922 64.008 81.605 63.761 81.372 C 63.521 81.139 63.211 81.022 62.831 81.022 L 56.141 81.022 L 56.141 78.122 L 62.831 78.122 C 63.258 78.122 63.714 78.195 64.201 78.342 C 64.688 78.495 65.141 78.739 65.561 79.072 C 65.974 79.399 66.324 79.832 66.611 80.372 C 66.891 80.905 67.031 81.555 67.031 82.322 ZM 81.9 87.742 L 81.9 90.792 L 73.64 90.792 C 73.213 90.792 72.75 90.719 72.25 90.572 C 71.75 90.419 71.29 90.172 70.87 89.832 C 70.443 89.499 70.087 89.059 69.8 88.512 C 69.513 87.972 69.37 87.305 69.37 86.512 L 69.37 82.392 C 69.37 82.099 69.403 81.792 69.47 81.472 C 69.537 81.152 69.64 80.835 69.78 80.522 C 69.92 80.202 70.103 79.899 70.33 79.612 C 70.55 79.325 70.82 79.072 71.14 78.852 C 71.453 78.632 71.817 78.455 72.23 78.322 C 72.643 78.189 73.113 78.122 73.64 78.122 L 81.9 78.122 L 81.9 81.172 L 73.64 81.172 C 73.24 81.172 72.937 81.272 72.73 81.472 C 72.523 81.679 72.42 81.992 72.42 82.412 L 72.42 86.512 C 72.42 86.912 72.527 87.219 72.74 87.432 C 72.947 87.639 73.253 87.742 73.66 87.742 L 81.9 87.742 ZM 95.938 78.122 L 95.938 81.172 L 90.618 81.172 L 90.618 90.792 L 87.538 90.792 L 87.538 81.172 L 83.578 81.172 L 83.578 78.122 L 87.538 78.122 L 87.538 73.992 L 90.618 73.992 L 90.618 78.122 L 95.938 78.122 Z" transform="matrix(1, 0, 0, 1, 0, 0)" style="fill: rgb(51, 51, 51); pointer-events: none; stroke: rgb(97, 219, 251); white-space: pre;"/>
    <path d="M 123.43 73.276 L 123.43 91.366 L 119.85 91.366 L 119.85 79.686 L 113.55 90.776 C 113.397 91.063 113.18 91.276 112.9 91.416 C 112.62 91.563 112.32 91.636 112 91.636 C 111.693 91.636 111.403 91.563 111.13 91.416 C 110.863 91.276 110.653 91.063 110.5 90.776 L 104.17 79.686 L 104.17 91.366 L 100.61 91.366 L 100.61 73.276 C 100.61 72.869 100.733 72.506 100.98 72.186 C 101.22 71.866 101.537 71.653 101.93 71.546 C 102.117 71.499 102.307 71.483 102.5 71.496 C 102.693 71.509 102.877 71.549 103.05 71.616 C 103.23 71.683 103.393 71.779 103.54 71.906 C 103.687 72.026 103.81 72.173 103.91 72.346 L 112 86.416 L 120.1 72.346 C 120.307 71.999 120.597 71.753 120.97 71.606 C 121.337 71.466 121.72 71.446 122.12 71.546 C 122.5 71.653 122.813 71.866 123.06 72.186 C 123.307 72.506 123.43 72.869 123.43 73.276 ZM 143.382 76.586 L 143.382 92.786 C 143.382 93.399 143.305 93.949 143.152 94.436 C 142.998 94.923 142.795 95.349 142.542 95.716 C 142.282 96.089 141.985 96.406 141.652 96.666 C 141.312 96.926 140.958 97.136 140.592 97.296 C 140.225 97.463 139.852 97.586 139.472 97.666 C 139.098 97.739 138.745 97.776 138.412 97.776 L 132.002 97.776 L 132.002 94.226 L 138.412 94.226 C 138.885 94.226 139.238 94.103 139.472 93.856 C 139.712 93.609 139.832 93.253 139.832 92.786 L 139.832 76.586 L 143.382 76.586 Z M 138.412 87.816 L 138.412 91.366 L 132.002 91.366 C 131.488 91.366 130.942 91.279 130.362 91.106 C 129.782 90.933 129.242 90.649 128.742 90.256 C 128.242 89.856 127.828 89.339 127.502 88.706 C 127.175 88.073 127.012 87.296 127.012 86.376 L 127.012 76.586 L 130.562 76.586 L 130.562 86.376 C 130.562 86.843 130.685 87.199 130.932 87.446 C 131.178 87.693 131.542 87.816 132.022 87.816 L 138.412 87.816 ZM 166.403 73.556 L 166.403 91.366 L 162.853 91.366 L 162.853 86.556 L 150.353 86.556 L 150.353 91.366 L 146.803 91.366 L 146.803 81.566 C 146.803 80.133 147.046 78.816 147.533 77.616 C 148.026 76.409 148.709 75.373 149.583 74.506 C 150.463 73.639 151.499 72.966 152.693 72.486 C 153.886 71.999 155.189 71.756 156.603 71.756 L 164.613 71.756 C 164.859 71.756 165.093 71.803 165.313 71.896 C 165.533 71.989 165.723 72.116 165.883 72.276 C 166.049 72.443 166.176 72.636 166.263 72.856 C 166.356 73.076 166.403 73.309 166.403 73.556 Z M 150.353 81.566 L 150.353 82.996 L 162.853 82.996 L 162.853 75.316 L 156.603 75.316 C 156.489 75.316 156.259 75.333 155.913 75.366 C 155.559 75.393 155.153 75.473 154.693 75.606 C 154.233 75.733 153.746 75.926 153.233 76.186 C 152.726 76.453 152.259 76.819 151.833 77.286 C 151.399 77.753 151.046 78.333 150.773 79.026 C 150.493 79.726 150.353 80.573 150.353 81.566 ZM 186.259 70.336 L 186.259 86.376 C 186.259 86.989 186.182 87.539 186.029 88.026 C 185.876 88.513 185.672 88.939 185.419 89.306 C 185.159 89.679 184.862 89.996 184.529 90.256 C 184.189 90.516 183.836 90.726 183.469 90.886 C 183.096 91.053 182.722 91.173 182.349 91.246 C 181.969 91.326 181.609 91.366 181.269 91.366 L 174.859 91.366 C 174.246 91.366 173.699 91.289 173.219 91.136 C 172.739 90.983 172.312 90.776 171.939 90.516 C 171.572 90.256 171.259 89.956 170.999 89.616 C 170.739 89.276 170.526 88.923 170.359 88.556 C 170.199 88.189 170.079 87.816 169.999 87.436 C 169.919 87.056 169.879 86.703 169.879 86.376 L 169.879 81.566 C 169.879 80.653 170.046 79.879 170.379 79.246 C 170.712 78.613 171.129 78.096 171.629 77.696 C 172.122 77.303 172.662 77.019 173.249 76.846 C 173.829 76.673 174.366 76.586 174.859 76.586 L 181.269 76.586 L 181.269 80.146 L 174.889 80.146 C 174.416 80.146 174.056 80.266 173.809 80.506 C 173.562 80.746 173.439 81.099 173.439 81.566 L 173.439 86.346 C 173.439 86.833 173.559 87.199 173.799 87.446 C 174.039 87.693 174.392 87.816 174.859 87.816 L 181.269 87.816 C 181.756 87.816 182.116 87.693 182.349 87.446 C 182.589 87.199 182.709 86.843 182.709 86.376 L 182.709 70.336 L 186.259 70.336 ZM 202.842 81.566 L 202.842 91.366 L 199.292 91.366 L 199.292 81.566 C 199.292 81.099 199.169 80.746 198.922 80.506 C 198.675 80.266 198.309 80.146 197.822 80.146 L 193.202 80.146 L 193.202 91.366 L 189.652 91.366 L 189.652 78.346 C 189.652 78.106 189.695 77.876 189.782 77.656 C 189.875 77.443 190.005 77.256 190.172 77.096 C 190.332 76.936 190.522 76.813 190.742 76.726 C 190.962 76.633 191.195 76.586 191.442 76.586 L 197.852 76.586 C 198.345 76.586 198.875 76.673 199.442 76.846 C 200.002 77.019 200.539 77.296 201.052 77.676 L 201.052 76.586 L 205.862 76.586 C 206.202 76.586 206.559 76.626 206.932 76.706 C 207.305 76.779 207.675 76.899 208.042 77.066 C 208.415 77.233 208.769 77.443 209.102 77.696 C 209.442 77.956 209.739 78.273 209.992 78.646 C 210.245 79.013 210.452 79.439 210.612 79.926 C 210.765 80.406 210.842 80.953 210.842 81.566 L 210.842 91.366 L 207.282 91.366 L 207.282 81.566 C 207.282 81.099 207.169 80.746 206.942 80.506 C 206.709 80.266 206.349 80.146 205.862 80.146 L 202.662 80.146 C 202.782 80.579 202.842 81.053 202.842 81.566 ZM 217.711 70.336 L 217.711 73.556 L 214.151 73.556 L 214.151 70.336 L 217.711 70.336 Z M 217.711 76.586 L 217.711 91.366 L 214.151 91.366 L 214.151 76.586 L 217.711 76.586 ZM 237.484 83.166 L 237.484 91.366 L 233.924 91.366 L 233.924 83.166 C 233.924 82.699 233.844 82.283 233.684 81.916 C 233.524 81.543 233.307 81.226 233.034 80.966 C 232.761 80.699 232.441 80.496 232.074 80.356 C 231.707 80.216 231.307 80.146 230.874 80.146 L 224.654 80.146 L 224.654 91.366 L 221.104 91.366 L 221.104 78.346 C 221.104 78.106 221.147 77.876 221.234 77.656 C 221.327 77.443 221.457 77.256 221.624 77.096 C 221.784 76.936 221.974 76.813 222.194 76.726 C 222.414 76.633 222.647 76.586 222.894 76.586 L 230.904 76.586 C 231.351 76.586 231.824 76.636 232.324 76.736 C 232.817 76.836 233.307 76.999 233.794 77.226 C 234.281 77.446 234.747 77.726 235.194 78.066 C 235.634 78.413 236.024 78.829 236.364 79.316 C 236.711 79.803 236.984 80.366 237.184 81.006 C 237.384 81.639 237.484 82.359 237.484 83.166 Z" transform="matrix(1, 0, 0, 1, 0, 0)" style="fill: rgb(203, 122, 0); paint-order: fill markers; pointer-events: none; stroke: rgb(171, 103, 0); white-space: pre;"/>
  </g>
</svg>