<?xml version="1.0" encoding="utf-8"?>
<svg viewBox="1.724 11.493 219.797 66.083" xmlns="http://www.w3.org/2000/svg">
  <g transform="matrix(1, 0, 0, 1, -16.664423, -33.903481)">
    <path d="M 35.799 77.692 L 35.799 79.632 C 35.799 80.332 35.712 80.955 35.539 81.502 C 35.372 82.049 35.142 82.529 34.849 82.942 C 34.556 83.362 34.216 83.722 33.829 84.022 C 33.449 84.315 33.049 84.559 32.629 84.752 C 32.216 84.945 31.796 85.082 31.369 85.162 C 30.942 85.249 30.542 85.292 30.169 85.292 L 36.529 90.792 L 31.819 90.792 L 25.469 85.292 L 23.279 85.292 L 23.279 82.252 L 30.169 82.252 C 30.549 82.219 30.896 82.139 31.209 82.012 C 31.529 81.879 31.802 81.705 32.029 81.492 C 32.262 81.272 32.442 81.005 32.569 80.692 C 32.696 80.385 32.759 80.032 32.759 79.632 L 32.759 77.712 C 32.759 77.539 32.736 77.409 32.689 77.322 C 32.649 77.229 32.596 77.162 32.529 77.122 C 32.462 77.082 32.392 77.055 32.319 77.042 C 32.239 77.035 32.169 77.032 32.109 77.032 L 22.059 77.032 L 22.059 90.792 L 19.009 90.792 L 19.009 75.522 C 19.009 75.309 19.049 75.109 19.129 74.922 C 19.202 74.735 19.309 74.572 19.449 74.432 C 19.582 74.292 19.746 74.182 19.939 74.102 C 20.126 74.029 20.326 73.992 20.539 73.992 L 32.109 73.992 C 32.789 73.992 33.362 74.112 33.829 74.352 C 34.302 74.599 34.686 74.909 34.979 75.282 C 35.272 75.655 35.482 76.055 35.609 76.482 C 35.736 76.915 35.799 77.319 35.799 77.692 ZM 52.004 82.322 C 52.004 82.742 51.93 83.195 51.784 83.682 C 51.63 84.169 51.39 84.622 51.064 85.042 C 50.73 85.462 50.294 85.812 49.754 86.092 C 49.22 86.372 48.57 86.512 47.804 86.512 L 42.314 86.512 L 42.314 83.622 L 47.804 83.622 C 48.217 83.622 48.537 83.495 48.764 83.242 C 48.99 82.989 49.104 82.672 49.104 82.292 C 49.104 81.899 48.977 81.589 48.724 81.362 C 48.47 81.135 48.164 81.022 47.804 81.022 L 42.314 81.022 C 41.9 81.022 41.58 81.149 41.354 81.402 C 41.127 81.655 41.014 81.969 41.014 82.342 L 41.014 86.592 C 41.014 86.999 41.14 87.315 41.394 87.542 C 41.647 87.769 41.96 87.882 42.334 87.882 L 47.804 87.882 L 47.804 90.792 L 42.314 90.792 C 41.887 90.792 41.43 90.719 40.944 90.572 C 40.457 90.419 40.004 90.179 39.584 89.852 C 39.17 89.519 38.82 89.085 38.534 88.552 C 38.254 88.012 38.114 87.359 38.114 86.592 L 38.114 82.322 C 38.114 81.895 38.187 81.439 38.334 80.952 C 38.487 80.465 38.73 80.012 39.064 79.592 C 39.39 79.179 39.824 78.829 40.364 78.542 C 40.897 78.262 41.547 78.122 42.314 78.122 L 47.804 78.122 C 48.23 78.122 48.687 78.195 49.174 78.342 C 49.66 78.495 50.114 78.739 50.534 79.072 C 50.947 79.399 51.297 79.832 51.584 80.372 C 51.864 80.905 52.004 81.555 52.004 82.322 ZM 67.033 82.322 L 67.033 86.592 C 67.033 87.019 66.96 87.475 66.813 87.962 C 66.66 88.449 66.416 88.902 66.083 89.322 C 65.756 89.742 65.323 90.092 64.783 90.372 C 64.25 90.652 63.6 90.792 62.833 90.792 L 57.343 90.792 C 56.916 90.792 56.46 90.719 55.973 90.572 C 55.486 90.419 55.033 90.179 54.613 89.852 C 54.193 89.519 53.843 89.085 53.563 88.552 C 53.283 88.012 53.143 87.359 53.143 86.592 C 53.143 86.172 53.216 85.715 53.363 85.222 C 53.516 84.735 53.756 84.282 54.083 83.862 C 54.416 83.442 54.853 83.092 55.393 82.812 C 55.926 82.532 56.576 82.392 57.343 82.392 L 62.833 82.392 L 62.833 85.292 L 57.343 85.292 C 56.93 85.292 56.61 85.419 56.383 85.672 C 56.156 85.932 56.043 86.249 56.043 86.622 C 56.043 87.022 56.173 87.332 56.433 87.552 C 56.693 87.772 57.003 87.882 57.363 87.882 L 62.833 87.882 C 63.246 87.882 63.566 87.759 63.793 87.512 C 64.02 87.259 64.133 86.945 64.133 86.572 L 64.133 82.322 C 64.133 81.922 64.01 81.605 63.763 81.372 C 63.523 81.139 63.213 81.022 62.833 81.022 L 56.143 81.022 L 56.143 78.122 L 62.833 78.122 C 63.26 78.122 63.716 78.195 64.203 78.342 C 64.69 78.495 65.143 78.739 65.563 79.072 C 65.976 79.399 66.326 79.832 66.613 80.372 C 66.893 80.905 67.033 81.555 67.033 82.322 ZM 81.896 87.742 L 81.896 90.792 L 73.636 90.792 C 73.209 90.792 72.746 90.719 72.246 90.572 C 71.746 90.419 71.286 90.172 70.866 89.832 C 70.439 89.499 70.083 89.059 69.796 88.512 C 69.509 87.972 69.366 87.305 69.366 86.512 L 69.366 82.392 C 69.366 82.099 69.399 81.792 69.466 81.472 C 69.533 81.152 69.636 80.835 69.776 80.522 C 69.916 80.202 70.099 79.899 70.326 79.612 C 70.546 79.325 70.816 79.072 71.136 78.852 C 71.449 78.632 71.813 78.455 72.226 78.322 C 72.639 78.189 73.109 78.122 73.636 78.122 L 81.896 78.122 L 81.896 81.172 L 73.636 81.172 C 73.236 81.172 72.933 81.272 72.726 81.472 C 72.519 81.679 72.416 81.992 72.416 82.412 L 72.416 86.512 C 72.416 86.912 72.523 87.219 72.736 87.432 C 72.943 87.639 73.249 87.742 73.656 87.742 L 81.896 87.742 ZM 95.928 78.122 L 95.928 81.172 L 90.608 81.172 L 90.608 90.792 L 87.528 90.792 L 87.528 81.172 L 83.568 81.172 L 83.568 78.122 L 87.528 78.122 L 87.528 73.992 L 90.608 73.992 L 90.608 78.122 L 95.928 78.122 Z" transform="matrix(1, 0, 0, 1, 0, 0)" style="fill: rgb(51, 51, 51); pointer-events: none; stroke: rgb(97, 219, 251); white-space: pre;"/>
    <g transform="matrix(0.242171, 0.039649, -0.040449, 0.247059, 186.612961, 75.851959)" style="">
      <g style="stroke: none; stroke-width: 0; stroke-dasharray: none; stroke-linecap: butt; stroke-linejoin: miter; stroke-miterlimit: 10; fill: none; fill-rule: nonzero; opacity: 1;" transform="translate(-144.89999999999998 -144.90000000000003) scale(3.22 3.22)">
        <path d="M 1.235 89.806 c -0.267 0 -0.533 -0.102 -0.737 -0.305 c -0.407 -0.407 -0.407 -1.066 0 -1.473 L 13.697 74.83 c 0.407 -0.407 1.066 -0.407 1.473 0 s 0.407 1.066 0 1.473 L 1.972 89.501 C 1.768 89.704 1.502 89.806 1.235 89.806 z" style="stroke: none; stroke-width: 1; stroke-dasharray: none; stroke-linecap: butt; stroke-linejoin: miter; stroke-miterlimit: 10; fill-rule: nonzero; opacity: 1; fill: rgb(133, 133, 133);" transform=" matrix(1 0 0 1 0 0) " stroke-linecap="round"/>
        <path d="M 12.8 89.806 c -0.267 0 -0.533 -0.102 -0.737 -0.305 c -0.407 -0.407 -0.407 -1.066 0 -1.473 l 7.416 -7.416 c 0.407 -0.407 1.066 -0.407 1.473 0 s 0.407 1.066 0 1.473 l -7.416 7.416 C 13.334 89.704 13.067 89.806 12.8 89.806 z" style="stroke: none; stroke-width: 1; stroke-dasharray: none; stroke-linecap: butt; stroke-linejoin: miter; stroke-miterlimit: 10; fill-rule: nonzero; opacity: 1; fill: rgb(133, 133, 133);" transform=" matrix(1 0 0 1 0 0) " stroke-linecap="round"/>
        <path d="M 1.235 78.242 c -0.267 0 -0.533 -0.102 -0.737 -0.305 c -0.407 -0.407 -0.407 -1.066 0 -1.473 l 7.416 -7.416 c 0.407 -0.407 1.066 -0.407 1.473 0 s 0.407 1.066 0 1.473 l -7.416 7.416 C 1.768 78.14 1.502 78.242 1.235 78.242 z" style="stroke: none; stroke-width: 1; stroke-dasharray: none; stroke-linecap: butt; stroke-linejoin: miter; stroke-miterlimit: 10; fill-rule: nonzero; opacity: 1; fill: rgb(133, 133, 133);" transform=" matrix(1 0 0 1 0 0) " stroke-linecap="round"/>
        <path d="M 88.299 0.016 L 77.432 1.586 C 67.023 3.091 57.38 7.922 49.944 15.359 l -14.64 14.64 l -13.192 -1.166 c -1.977 -0.175 -3.93 0.535 -5.333 1.939 L 0.344 47.206 c -0.702 0.702 -0.265 1.903 0.724 1.991 l 13.817 1.221 l 4.384 4.384 l -4.067 6.669 c -0.644 1.055 -0.481 2.414 0.393 3.288 l 9.646 9.646 c 0.874 0.874 2.233 1.036 3.288 0.393 l 6.669 -4.067 l 4.384 4.384 l 0.023 -0.023 l 1.198 13.84 c 0.087 0.988 1.289 1.425 1.991 0.724 l 16.434 -16.434 c 1.403 -1.403 2.113 -3.356 1.939 -5.333 L 59.997 54.7 l 14.644 -14.644 c 7.437 -7.437 12.268 -17.079 13.772 -27.488 l 1.571 -10.867 C 90.126 0.717 89.283 -0.126 88.299 0.016 z M 64.571 37.529 c -3.341 3.341 -8.759 3.341 -12.1 0 c -3.341 -3.341 -3.341 -8.759 0 -12.1 c 3.341 -3.341 8.759 -3.341 12.1 0 C 67.913 28.77 67.913 34.187 64.571 37.529 z" style="stroke: none; stroke-width: 1; stroke-dasharray: none; stroke-linecap: butt; stroke-linejoin: miter; stroke-miterlimit: 10; fill-rule: nonzero; opacity: 1; fill: rgb(133, 133, 133);" transform=" matrix(1 0 0 1 0 0) " stroke-linecap="round"/>
      </g>
    </g>
    <path d="M 123.43 73.276 L 123.43 91.366 L 119.85 91.366 L 119.85 79.686 L 113.55 90.776 C 113.397 91.063 113.18 91.276 112.9 91.416 C 112.62 91.563 112.32 91.636 112 91.636 C 111.693 91.636 111.403 91.563 111.13 91.416 C 110.863 91.276 110.653 91.063 110.5 90.776 L 104.17 79.686 L 104.17 91.366 L 100.61 91.366 L 100.61 73.276 C 100.61 72.869 100.733 72.506 100.98 72.186 C 101.22 71.866 101.537 71.653 101.93 71.546 C 102.117 71.499 102.307 71.483 102.5 71.496 C 102.693 71.509 102.877 71.549 103.05 71.616 C 103.23 71.683 103.393 71.779 103.54 71.906 C 103.687 72.026 103.81 72.173 103.91 72.346 L 112 86.416 L 120.1 72.346 C 120.307 71.999 120.597 71.753 120.97 71.606 C 121.337 71.466 121.72 71.446 122.12 71.546 C 122.5 71.653 122.813 71.866 123.06 72.186 C 123.307 72.506 123.43 72.869 123.43 73.276 ZM 143.371 76.586 L 143.371 92.786 C 143.371 93.399 143.295 93.949 143.141 94.436 C 142.988 94.923 142.785 95.349 142.531 95.716 C 142.271 96.089 141.975 96.406 141.641 96.666 C 141.301 96.926 140.948 97.136 140.581 97.296 C 140.215 97.463 139.841 97.586 139.461 97.666 C 139.088 97.739 138.735 97.776 138.401 97.776 L 131.991 97.776 L 131.991 94.226 L 138.401 94.226 C 138.875 94.226 139.228 94.103 139.461 93.856 C 139.701 93.609 139.821 93.253 139.821 92.786 L 139.821 76.586 L 143.371 76.586 Z M 138.401 87.816 L 138.401 91.366 L 131.991 91.366 C 131.478 91.366 130.931 91.279 130.351 91.106 C 129.771 90.933 129.231 90.649 128.731 90.256 C 128.231 89.856 127.818 89.339 127.491 88.706 C 127.165 88.073 127.001 87.296 127.001 86.376 L 127.001 76.586 L 130.551 76.586 L 130.551 86.376 C 130.551 86.843 130.675 87.199 130.921 87.446 C 131.168 87.693 131.531 87.816 132.011 87.816 L 138.401 87.816 ZM 166.4 73.556 L 166.4 91.366 L 162.85 91.366 L 162.85 86.556 L 150.35 86.556 L 150.35 91.366 L 146.8 91.366 L 146.8 81.566 C 146.8 80.133 147.044 78.816 147.53 77.616 C 148.024 76.409 148.707 75.373 149.58 74.506 C 150.46 73.639 151.497 72.966 152.69 72.486 C 153.884 71.999 155.187 71.756 156.6 71.756 L 164.61 71.756 C 164.857 71.756 165.09 71.803 165.31 71.896 C 165.53 71.989 165.72 72.116 165.88 72.276 C 166.047 72.443 166.174 72.636 166.26 72.856 C 166.354 73.076 166.4 73.309 166.4 73.556 Z M 150.35 81.566 L 150.35 82.996 L 162.85 82.996 L 162.85 75.316 L 156.6 75.316 C 156.487 75.316 156.257 75.333 155.91 75.366 C 155.557 75.393 155.15 75.473 154.69 75.606 C 154.23 75.733 153.744 75.926 153.23 76.186 C 152.724 76.453 152.257 76.819 151.83 77.286 C 151.397 77.753 151.044 78.333 150.77 79.026 C 150.49 79.726 150.35 80.573 150.35 81.566 ZM 186.248 70.336 L 186.248 86.376 C 186.248 86.989 186.171 87.539 186.018 88.026 C 185.864 88.513 185.661 88.939 185.408 89.306 C 185.148 89.679 184.851 89.996 184.518 90.256 C 184.178 90.516 183.824 90.726 183.458 90.886 C 183.084 91.053 182.711 91.173 182.338 91.246 C 181.958 91.326 181.598 91.366 181.258 91.366 L 174.848 91.366 C 174.234 91.366 173.688 91.289 173.208 91.136 C 172.728 90.983 172.301 90.776 171.928 90.516 C 171.561 90.256 171.248 89.956 170.988 89.616 C 170.728 89.276 170.514 88.923 170.348 88.556 C 170.188 88.189 170.068 87.816 169.988 87.436 C 169.908 87.056 169.868 86.703 169.868 86.376 L 169.868 81.566 C 169.868 80.653 170.034 79.879 170.368 79.246 C 170.701 78.613 171.118 78.096 171.618 77.696 C 172.111 77.303 172.651 77.019 173.238 76.846 C 173.818 76.673 174.354 76.586 174.848 76.586 L 181.258 76.586 L 181.258 80.146 L 174.878 80.146 C 174.404 80.146 174.044 80.266 173.798 80.506 C 173.551 80.746 173.428 81.099 173.428 81.566 L 173.428 86.346 C 173.428 86.833 173.548 87.199 173.788 87.446 C 174.028 87.693 174.381 87.816 174.848 87.816 L 181.258 87.816 C 181.744 87.816 182.104 87.693 182.338 87.446 C 182.578 87.199 182.698 86.843 182.698 86.376 L 182.698 70.336 L 186.248 70.336 ZM 202.838 81.566 L 202.838 91.366 L 199.288 91.366 L 199.288 81.566 C 199.288 81.099 199.165 80.746 198.918 80.506 C 198.672 80.266 198.305 80.146 197.818 80.146 L 193.198 80.146 L 193.198 91.366 L 189.648 91.366 L 189.648 78.346 C 189.648 78.106 189.692 77.876 189.778 77.656 C 189.872 77.443 190.002 77.256 190.168 77.096 C 190.328 76.936 190.518 76.813 190.738 76.726 C 190.958 76.633 191.192 76.586 191.438 76.586 L 197.848 76.586 C 198.342 76.586 198.872 76.673 199.438 76.846 C 199.998 77.019 200.535 77.296 201.048 77.676 L 201.048 76.586 L 205.858 76.586 C 206.198 76.586 206.555 76.626 206.928 76.706 C 207.302 76.779 207.672 76.899 208.038 77.066 C 208.412 77.233 208.765 77.443 209.098 77.696 C 209.438 77.956 209.735 78.273 209.988 78.646 C 210.242 79.013 210.448 79.439 210.608 79.926 C 210.762 80.406 210.838 80.953 210.838 81.566 L 210.838 91.366 L 207.278 91.366 L 207.278 81.566 C 207.278 81.099 207.165 80.746 206.938 80.506 C 206.705 80.266 206.345 80.146 205.858 80.146 L 202.658 80.146 C 202.778 80.579 202.838 81.053 202.838 81.566 ZM 217.698 70.336 L 217.698 73.556 L 214.138 73.556 L 214.138 70.336 L 217.698 70.336 Z M 217.698 76.586 L 217.698 91.366 L 214.138 91.366 L 214.138 76.586 L 217.698 76.586 ZM 237.484 83.166 L 237.484 91.366 L 233.924 91.366 L 233.924 83.166 C 233.924 82.699 233.844 82.283 233.684 81.916 C 233.524 81.543 233.307 81.226 233.034 80.966 C 232.761 80.699 232.441 80.496 232.074 80.356 C 231.707 80.216 231.307 80.146 230.874 80.146 L 224.654 80.146 L 224.654 91.366 L 221.104 91.366 L 221.104 78.346 C 221.104 78.106 221.147 77.876 221.234 77.656 C 221.327 77.443 221.457 77.256 221.624 77.096 C 221.784 76.936 221.974 76.813 222.194 76.726 C 222.414 76.633 222.647 76.586 222.894 76.586 L 230.904 76.586 C 231.351 76.586 231.824 76.636 232.324 76.736 C 232.817 76.836 233.307 76.999 233.794 77.226 C 234.281 77.446 234.747 77.726 235.194 78.066 C 235.634 78.413 236.024 78.829 236.364 79.316 C 236.711 79.803 236.984 80.366 237.184 81.006 C 237.384 81.639 237.484 82.359 237.484 83.166 Z" transform="matrix(1, 0, 0, 1, 0, 0)" style="fill: rgb(203, 122, 0); paint-order: fill markers; pointer-events: none; stroke: rgb(171, 103, 0); white-space: pre;"/>
  </g>
</svg>